<mxfile host="65bd71144e">
    <diagram id="nxFTu9ZOe8f5wOysTsA-" name="Page-1">
        <mxGraphModel dx="2629" dy="1147" grid="0" gridSize="10" guides="1" tooltips="1" connect="1" arrows="1" fold="1" page="0" pageScale="1" pageWidth="850" pageHeight="1100" background="#FAFAFA" math="0" shadow="0">
            <root>
                <mxCell id="0"/>
                <mxCell id="1" parent="0"/>
                <mxCell id="143" value="" style="rounded=0;whiteSpace=wrap;html=1;labelBackgroundColor=#162126;labelBorderColor=#1e628f;comic=0;sketch=0;strokeColor=#1E628F;fontSize=10;fontColor=#877a5e;fillColor=#FAFAFA;gradientColor=none;dashed=1;dashPattern=1 1;" parent="1" vertex="1">
                    <mxGeometry x="1041.9" y="130" width="958.1" height="790" as="geometry"/>
                </mxCell>
                <mxCell id="129" value="" style="rounded=0;whiteSpace=wrap;html=1;labelBorderColor=#1e628f;comic=0;sketch=0;strokeColor=#1E628F;fontSize=10;fontColor=#877a5e;fillColor=#162126;gradientColor=none;labelBackgroundColor=#162126;" parent="1" vertex="1">
                    <mxGeometry x="1060.9" y="717.02" width="360" height="182.98" as="geometry"/>
                </mxCell>
                <mxCell id="122" value="" style="rounded=0;whiteSpace=wrap;html=1;labelBorderColor=#1e628f;comic=0;sketch=0;strokeColor=#1E628F;fontSize=10;fontColor=#877a5e;fillColor=#162126;gradientColor=none;labelBackgroundColor=#162126;" parent="1" vertex="1">
                    <mxGeometry x="1420.9" y="306" width="199.5" height="60" as="geometry"/>
                </mxCell>
                <mxCell id="15" value="&lt;b&gt;FACTORY&lt;/b&gt;" style="text;html=1;strokeColor=none;fillColor=none;align=center;verticalAlign=middle;whiteSpace=wrap;rounded=0;dashed=1;comic=0;sketch=0;fontColor=#1E628F;" parent="1" vertex="1">
                    <mxGeometry x="1080.9" y="139" width="100" height="30" as="geometry"/>
                </mxCell>
                <mxCell id="109" value="Devices" style="swimlane;fontStyle=0;childLayout=stackLayout;horizontal=1;startSize=26;fillColor=#162126;horizontalStack=0;resizeParent=1;resizeParentMax=0;resizeLast=0;collapsible=1;marginBottom=0;comic=0;sketch=0;strokeColor=#1E628F;fontColor=#878787;" parent="1" vertex="1">
                    <mxGeometry x="1420.4" y="176" width="200" height="130" as="geometry"/>
                </mxCell>
                <mxCell id="110" value="- tag: string" style="text;strokeColor=none;fillColor=#162126;align=left;verticalAlign=top;spacingLeft=4;spacingRight=4;overflow=hidden;rotatable=0;points=[[0,0.5],[1,0.5]];portConstraint=eastwest;comic=0;sketch=0;fontColor=#878787;" parent="109" vertex="1">
                    <mxGeometry y="26" width="200" height="26" as="geometry"/>
                </mxCell>
                <mxCell id="111" value="- area: string" style="text;strokeColor=none;fillColor=#162126;align=left;verticalAlign=top;spacingLeft=4;spacingRight=4;overflow=hidden;rotatable=0;points=[[0,0.5],[1,0.5]];portConstraint=eastwest;comic=0;sketch=0;fontColor=#878787;" parent="109" vertex="1">
                    <mxGeometry y="52" width="200" height="26" as="geometry"/>
                </mxCell>
                <mxCell id="112" value="- descricao: string" style="text;strokeColor=none;fillColor=#162126;align=left;verticalAlign=top;spacingLeft=4;spacingRight=4;overflow=hidden;rotatable=0;points=[[0,0.5],[1,0.5]];portConstraint=eastwest;comic=0;sketch=0;fontColor=#878787;" parent="109" vertex="1">
                    <mxGeometry y="78" width="200" height="52" as="geometry"/>
                </mxCell>
                <mxCell id="114" value="AIDeviceBuilder" style="swimlane;fontStyle=0;childLayout=stackLayout;horizontal=1;startSize=26;fillColor=#162126;horizontalStack=0;resizeParent=1;resizeParentMax=0;resizeLast=0;collapsible=1;marginBottom=0;comic=0;sketch=0;strokeColor=#1E628F;fontColor=#878787;" parent="1" vertex="1">
                    <mxGeometry x="1060" y="531.02" width="359.9" height="160" as="geometry"/>
                </mxCell>
                <mxCell id="115" value="- _tag: String" style="text;strokeColor=none;fillColor=#162126;align=left;verticalAlign=top;spacingLeft=4;spacingRight=4;overflow=hidden;rotatable=0;points=[[0,0.5],[1,0.5]];portConstraint=eastwest;comic=0;sketch=0;fontColor=#878787;" parent="114" vertex="1">
                    <mxGeometry y="26" width="359.9" height="26" as="geometry"/>
                </mxCell>
                <mxCell id="116" value="- _area: String" style="text;strokeColor=none;fillColor=#162126;align=left;verticalAlign=top;spacingLeft=4;spacingRight=4;overflow=hidden;rotatable=0;points=[[0,0.5],[1,0.5]];portConstraint=eastwest;comic=0;sketch=0;fontColor=#878787;" parent="114" vertex="1">
                    <mxGeometry y="52" width="359.9" height="26" as="geometry"/>
                </mxCell>
                <mxCell id="117" value="- _descricao: String" style="text;strokeColor=none;fillColor=#162126;align=left;verticalAlign=top;spacingLeft=4;spacingRight=4;overflow=hidden;rotatable=0;points=[[0,0.5],[1,0.5]];portConstraint=eastwest;comic=0;sketch=0;fontColor=#878787;" parent="114" vertex="1">
                    <mxGeometry y="78" width="359.9" height="82" as="geometry"/>
                </mxCell>
                <mxCell id="119" value="&lt;b style=&quot;font-size: 10px;&quot;&gt;&amp;lt;&amp;lt;abstract&amp;gt;&amp;gt;&lt;/b&gt;" style="text;html=1;strokeColor=none;fillColor=none;align=center;verticalAlign=middle;whiteSpace=wrap;rounded=0;dashed=1;comic=0;sketch=0;fontColor=#1E628F;spacing=2;fontSize=10;" parent="1" vertex="1">
                    <mxGeometry x="1470.65" y="146" width="100" height="30" as="geometry"/>
                </mxCell>
                <mxCell id="120" value="+ __init__(tag, area, descricao, tipo)" style="text;strokeColor=none;fillColor=none;align=left;verticalAlign=top;spacingLeft=4;spacingRight=4;overflow=hidden;rotatable=0;points=[[0,0.5],[1,0.5]];portConstraint=eastwest;comic=0;sketch=0;fontColor=#878787;" parent="1" vertex="1">
                    <mxGeometry x="1419.9" y="307" width="200.5" height="26" as="geometry"/>
                </mxCell>
                <mxCell id="123" value="- tipo: string" style="text;strokeColor=none;fillColor=none;align=left;verticalAlign=top;spacingLeft=4;spacingRight=4;overflow=hidden;rotatable=0;points=[[0,0.5],[1,0.5]];portConstraint=eastwest;comic=0;sketch=0;fontColor=#878787;" parent="1" vertex="1">
                    <mxGeometry x="1420.9" y="280" width="140" height="26" as="geometry"/>
                </mxCell>
                <mxCell id="124" value="+ __repr__(): String" style="text;strokeColor=none;fillColor=none;align=left;verticalAlign=top;spacingLeft=4;spacingRight=4;overflow=hidden;rotatable=0;points=[[0,0.5],[1,0.5]];portConstraint=eastwest;comic=0;sketch=0;fontColor=#878787;" parent="1" vertex="1">
                    <mxGeometry x="1419.9" y="333" width="200.5" height="26" as="geometry"/>
                </mxCell>
                <mxCell id="125" value="- _range_min: float" style="text;strokeColor=none;fillColor=none;align=left;verticalAlign=top;spacingLeft=4;spacingRight=4;overflow=hidden;rotatable=0;points=[[0,0.5],[1,0.5]];portConstraint=eastwest;comic=0;sketch=0;fontColor=#878787;" parent="1" vertex="1">
                    <mxGeometry x="1059.9" y="635.02" width="140" height="26" as="geometry"/>
                </mxCell>
                <mxCell id="127" value="- _range_max: float" style="text;strokeColor=none;fillColor=none;align=left;verticalAlign=top;spacingLeft=4;spacingRight=4;overflow=hidden;rotatable=0;points=[[0,0.5],[1,0.5]];portConstraint=eastwest;comic=0;sketch=0;fontColor=#878787;" parent="1" vertex="1">
                    <mxGeometry x="1059.9" y="661.02" width="140" height="26" as="geometry"/>
                </mxCell>
                <mxCell id="128" value="+ set_tag(tag): AIDeviceBuilder " style="text;strokeColor=none;fillColor=none;align=left;verticalAlign=top;spacingLeft=4;spacingRight=4;overflow=hidden;rotatable=0;points=[[0,0.5],[1,0.5]];portConstraint=eastwest;comic=0;sketch=0;fontColor=#878787;" parent="1" vertex="1">
                    <mxGeometry x="1061.9" y="717.02" width="360" height="26" as="geometry"/>
                </mxCell>
                <mxCell id="130" value="+ set_area(area): AIDeviceBuilder" style="text;strokeColor=none;fillColor=none;align=left;verticalAlign=top;spacingLeft=4;spacingRight=4;overflow=hidden;rotatable=0;points=[[0,0.5],[1,0.5]];portConstraint=eastwest;comic=0;sketch=0;fontColor=#878787;" parent="1" vertex="1">
                    <mxGeometry x="1060.9" y="743.02" width="360" height="26" as="geometry"/>
                </mxCell>
                <mxCell id="131" value="+ set_descricao(descricao): AIDeviceBuilder" style="text;strokeColor=none;fillColor=none;align=left;verticalAlign=top;spacingLeft=4;spacingRight=4;overflow=hidden;rotatable=0;points=[[0,0.5],[1,0.5]];portConstraint=eastwest;comic=0;sketch=0;fontColor=#878787;" parent="1" vertex="1">
                    <mxGeometry x="1061.9" y="769.02" width="360" height="26" as="geometry"/>
                </mxCell>
                <mxCell id="132" value="+ set_range_min(range_min): AIDeviceBuilder" style="text;strokeColor=none;fillColor=none;align=left;verticalAlign=top;spacingLeft=4;spacingRight=4;overflow=hidden;rotatable=0;points=[[0,0.5],[1,0.5]];portConstraint=eastwest;comic=0;sketch=0;fontColor=#878787;" parent="1" vertex="1">
                    <mxGeometry x="1061.9" y="795.02" width="360" height="26" as="geometry"/>
                </mxCell>
                <mxCell id="133" value="+ set_range_max(range_max): AIDeviceBuilder" style="text;strokeColor=none;fillColor=none;align=left;verticalAlign=top;spacingLeft=4;spacingRight=4;overflow=hidden;rotatable=0;points=[[0,0.5],[1,0.5]];portConstraint=eastwest;comic=0;sketch=0;fontColor=#878787;" parent="1" vertex="1">
                    <mxGeometry x="1061.9" y="821.02" width="360" height="26" as="geometry"/>
                </mxCell>
                <mxCell id="134" value="+ set_unit(unit): AIDeviceBuilder" style="text;strokeColor=none;fillColor=none;align=left;verticalAlign=top;spacingLeft=4;spacingRight=4;overflow=hidden;rotatable=0;points=[[0,0.5],[1,0.5]];portConstraint=eastwest;comic=0;sketch=0;fontColor=#878787;" parent="1" vertex="1">
                    <mxGeometry x="1061.9" y="847.02" width="360" height="26" as="geometry"/>
                </mxCell>
                <mxCell id="135" value="DODeviceFactory(Device)" style="swimlane;fontStyle=0;childLayout=stackLayout;horizontal=1;startSize=26;fillColor=#162126;horizontalStack=0;resizeParent=1;resizeParentMax=0;resizeLast=0;collapsible=1;marginBottom=0;comic=0;sketch=0;strokeColor=#1E628F;fontColor=#878787;" parent="1" vertex="1">
                    <mxGeometry x="1060" y="380" width="220" height="78" as="geometry"/>
                </mxCell>
                <mxCell id="222" value="+ criar_device(tag, area, descricao)" style="text;strokeColor=none;fillColor=#162126;align=left;verticalAlign=top;spacingLeft=4;spacingRight=4;overflow=hidden;rotatable=0;points=[[0,0.5],[1,0.5]];portConstraint=eastwest;comic=0;sketch=0;fontColor=#878787;" parent="135" vertex="1">
                    <mxGeometry y="26" width="220" height="26" as="geometry"/>
                </mxCell>
                <mxCell id="136" value="+ criar_device(tag, area, descricao)" style="text;strokeColor=none;fillColor=#162126;align=left;verticalAlign=top;spacingLeft=4;spacingRight=4;overflow=hidden;rotatable=0;points=[[0,0.5],[1,0.5]];portConstraint=eastwest;comic=0;sketch=0;fontColor=#878787;" parent="135" vertex="1">
                    <mxGeometry y="52" width="220" height="26" as="geometry"/>
                </mxCell>
                <mxCell id="144" value="&lt;b&gt;Design Patterns for Iot Embedded Systems&lt;/b&gt;" style="text;html=1;strokeColor=none;fillColor=none;align=center;verticalAlign=middle;whiteSpace=wrap;rounded=0;dashed=1;comic=0;sketch=0;fontColor=#d67d24;fontSize=37;labelBorderColor=default;" parent="1" vertex="1">
                    <mxGeometry x="705" y="40" width="985" height="30" as="geometry"/>
                </mxCell>
                <mxCell id="147" value="" style="shape=rect;fillColor=#333333;strokeColor=none;dashed=1;dashPattern=1 1;labelBackgroundColor=#162126;labelBorderColor=#1e628f;comic=0;sketch=0;fontSize=10;fontColor=#877a5e;" parent="1" vertex="1">
                    <mxGeometry x="390" y="130" width="490" height="190" as="geometry"/>
                </mxCell>
                <mxCell id="155" value="&lt;b&gt;BUILDER&lt;/b&gt;" style="text;html=1;strokeColor=none;fillColor=none;align=left;verticalAlign=middle;whiteSpace=wrap;rounded=0;dashed=1;comic=0;sketch=0;fontColor=#1E628F;" parent="1" vertex="1">
                    <mxGeometry x="1059.9" y="501.02" width="100" height="30" as="geometry"/>
                </mxCell>
                <mxCell id="156" value="&lt;b&gt;FACTORY METHOD&lt;/b&gt;" style="text;html=1;strokeColor=none;fillColor=none;align=left;verticalAlign=middle;whiteSpace=wrap;rounded=0;dashed=1;comic=0;sketch=0;fontColor=#1E628F;" parent="1" vertex="1">
                    <mxGeometry x="1460.65" y="409" width="120" height="30" as="geometry"/>
                </mxCell>
                <mxCell id="160" value="" style="whiteSpace=wrap;html=1;aspect=fixed;dashed=1;dashPattern=1 1;labelBackgroundColor=#162126;labelBorderColor=#1e628f;comic=0;sketch=0;strokeColor=#1E628F;fontSize=10;fontColor=#877a5e;fillColor=#FAFAFA;gradientColor=none;" parent="1" vertex="1">
                    <mxGeometry x="1041.9" y="132" width="50" height="50" as="geometry"/>
                </mxCell>
                <mxCell id="154" value="" style="shape=image;verticalLabelPosition=bottom;labelBackgroundColor=default;verticalAlign=top;aspect=fixed;imageAspect=0;image=data:image/png,iVBORw0KGgoAAAANSUhEUgAAAIwAAACMCAYAAACuwEE+AAAAAXNSR0IArs4c6QAAChdJREFUeF7tnV1sHFcVx88ZbzCEouQBUki94yiNEKBSQC1I5KWkQogiVEoplK9tvePENGrTeJzWFKkSifpi2nrHsVEBE2/MLkJ9QFRA6QMCEqFWIEgrBA8gQSFeWyC1CJXvtLHnwDi4dYPtuWfunbG9+99Xn497/ufnO3fuztxlwgcKKBRghS1MoQABGECgUgDAqOSCMYABAyoFAIxKLhgDGDCgUgDAqOSCMYABAyoFAIxKLhgDGDCgUgDAqORaP+M9h8a7z/194d02I5ibDk/b+Ce+AMZWwYL8e/prezzh32ZNJyQPzdaHbs/qv+QHYGwVLMi/txpdK0w/tEj3nVY9/JCF/6IrgLFVsCB/v1q7lZinLdI91aqHV1n4Axhb8Yr07+2v3SvC92XNKUTP7ihtvezJyc+czxoDM4yNcgX7+kH0FSIasEkrpa49s5N3Pm0TA5ckG/UK9C0H0WNMdJ1NyjimfbZ3SgDGpgMF+vpB9CsiusIqpXCldXLw6zYxAIyNegX57h4Y2TY/3z1DRNvsUvLnWvXBEZsYAMZGvYJ8y/3Hr2CJkxnG6uNiLwbAWLWgGOfeILpOiB5zkM16LwbAOOhC3iH8ajRATMldku3Hei8GwNi2oAD/cnXsPma51zZVshczWw932MQBMDbqFeTr90fTJHSri3RdvLDrD1N3JQvoTB8Ak0m2Yp38IEq+Q7rWRVZhvmZ2avDHWWMBmKzKFejnB1HyLfUeJykt92IAjJMu5Bfk8soDO85vKbWIqNtNFru9GADjpgu5RfH3H7+K4viMqwS2ezEAxlUncopT7o9uYKFHHIa32osBMA47kUcoP4gOEdG4w9hWezEAxmEn8gjlB2P3E8ndrmLb7sUAGFedyCmOX40eJqabXYbnEu2cmQz/lCUmgMmiWoE+flB7goj3ukzJRHtn6uFPssQEMFlUK9DHD6LklrrsMqWwfGJ2aujhLDEBTBbVCvLZWR0tl9hLgHH7Yb6nNTX4hSxBAUwW1Qry6a0e3yscP+E6nc1eDIBx3Q2H8cr7x27mWDJdOlKGkXkvBsA4bLDrUL1B7W4hvt91XCLKvBcDYHLohquQfhAlG3bJxp3Tj81eTNsB4wfRe1v18AdOFU4J1rN/7Mq5E4O/dJ2zN4geEaIbXMdN4s2XFl73x8m7/qyN3TbALD7GmLzoxfGjrfqRo1ohstj71dFPE3sVEXrF7MlwX5YYa/n41egMMVm/3rpiDs+7unXi8JPaMW9qYMoD45fzwsIAyeIbgdsvFB8fyxOYxSf4Ka6QyC1E/Pokowiddg1McrzHC/9cSG6prR6pXA0I9ugjMyfCb3UEMOWg9j4mPkBEN/1/wfkA09tf+ySJVxGS91+cMw9gbI/3SANBiI7M1sNamt3Ff99UM0w5qN3Gi+8X8ztWL9QdMH51/C3EcYUomU1o52o58wDGwfEeKSzIeKs+dLjtgNk9MObPz9MdRJJcdgze/LMHptxf+ziTl1x2PmAiaB7AODjeY+2hM327NRWqF9QbdoZJ7nZE6CAz3WjStGU2R1v18JjSh3b1TbxJvIXkkpPMJj0a/zyAsT3ew2D8mfZiNhww5f3RQU4WsUJvNyh6BRPdDOMHtY8RUYWIP5gtXz6LXhfHe6xVT9a9mA0BTO9A9IZ4Xo78b33ymqyNM71LuuzA6Bu9uKtCsdzCTL5dvnyAcXG8R1pdpdLz238/ec9f0+yW/31dgemp1q5h9g4zyYc1g17bdvUZxq9GNxEnswld7y5fPsA4Od4jpcjY47dpNxzXBRg/GDvAJHcI0ZUuG7fSDLN4e3phAZusTXa5z+ceGHfHe6RUy3J9a2rouxpNCgNm58CDr+063/VZZrqNiC7RDFJne2GG6e2LbiSPKnltrS8fk+tFr6vjPdJ0Y+ZDM1ODX0yzK/SStPhMhxcPk5D1kZ9mhcXHKJlRiHab2dtbuQbG4fEeaxYnTA/OToWqB8xzm2HKQdTHRENE9Fb7lmzsCK6BcXi8R5pw32zVw4+mGeU2w+zqi7bHTMPElOwgbtUMZDPbugbG1fEeBpr+vFUP32Vg96KJkxmm3Df2TvZkeOXvdjTDWdX2DBFPEMnXnERLD/IvIm6wcNPkEUnXwLg83iOl1Gda9fDSdDlesrACpjeIPkVEw/nc7SSDlEeFaGK2PvT9nr7oPZ5HpzTFaW1F+Kfkxc1z3d2NZx+6/R+Jvx9EkhbHOTAOj/dIG3u8TbbORUP/TrNb+rsamEsrD7y6u9Q1TMzJYulVpol0dvLVOKaJuemhFw8CzA8YOZfMJkTcbNUHH794nOsEjLvjPVKE90qlN5+dPPQb0/6ogMmvaYvDfS6ZTbaUnh9dafcxh9w/Y5HmlktKjd9N3Pm31QQzBcZUcBM7Zkp+5sbR8R5rZ9Qe9rwRgPm1CE3Mngy/tFZpboCRF4i5IcRN01OYTIAxgWCj2mwiYOQUM4/OTIXfMxHTEpgzJHHTE69xdjp8ziTfkg2Aeblahc8wIvwNkXhk+frEpIFaYIRk3hNucBc1z57I/ktkAGZ9gDlPxKOl0rkR7bejS8NVAPMUETVjlsbc1NBfTGBcywbAFAiMCCUPMY+krU9MmpoCTPzfrwIaLNScORn+yCSeqQ2AKQaYx5lpxHR9YtK8FYFh+oUINRdKC40s79iY5AUwhQCje+rNpHEXAdNILjtFvLAGYDYxMF1MV5e6X9l4+ssHnzGBzIUNgNmkwLhofpYYAAbAZOFm0/n4wehRIu/zaQPfIBt37tcwaYXj7y9XAMCACJUCAEYlF4wBDBhQKQBgVHLBGMCAAZUCAEYlF4wBDBhQKQBgVHLBGMCAAZUCAEYlF4wBDBhQKdDRwCTPwpiqNTetf37XNH6esZP6ssRfTZeOB8bsrcdsX3qWq9EpZloTyqxvN+bVuLR/oLzy5vTWQLbGrSaC+QPg2fICGPNZGcAkP3eGGeZ02oy19HcAA2D2adZOAAbAABjT6XXJDpckrGFUzAAYAANgOvkhcNxWq/hfNMY+jNFxZdiHWUILwAAY1TQDYAAMgDFVAGsYU6VessMMgxlGRQ2AATAAxlQBXJJMlcIlaVEBAANgVAoAGJVc2LgDMABGpQCAUcmFGQbAABiVAgBGJRdmGAADYPQKwEOlQEfv9KqUgjEuSWBArwBmGL1mHe0BYDq6/friAYxes472ADAd3X598QBGr1lHewCYjm6/vngAo9esoz0ATEe3X188gNFr1tEeAKaj268vftMBoy8RHu4V2DS/yOa+dETMR4EN8hN++RSHqO4VADDuNW3riACmrdvrvjgA417Tto4IYNq6ve6LAzDuNW3riACmrdvrvjgA417Tto6YOzBtrV6HFpfb0fEdqifKXqaA6rcGoBwUADBgQKUAgFHJBWMAAwZUCgAYlVwwBjBgQKUAgFHJBWMAAwZUCgAYlVwwBjBgQKXAfwDjuNr2Y5uoqAAAAABJRU5ErkJggg==;" parent="1" vertex="1">
                    <mxGeometry x="1051.9" y="139" width="30" height="30" as="geometry"/>
                </mxCell>
                <mxCell id="162" value="main()" style="swimlane;fontStyle=0;childLayout=stackLayout;horizontal=1;startSize=26;fillColor=#162126;horizontalStack=0;resizeParent=1;resizeParentMax=0;resizeLast=0;collapsible=1;marginBottom=0;comic=0;sketch=0;strokeColor=#1E628F;fontColor=#878787;" parent="1" vertex="1">
                    <mxGeometry x="390" y="640" width="360" height="78" as="geometry"/>
                </mxCell>
                <mxCell id="163" value="+ criar_dispositivo(tipo, *args): Device" style="text;strokeColor=none;fillColor=#162126;align=left;verticalAlign=top;spacingLeft=4;spacingRight=4;overflow=hidden;rotatable=0;points=[[0,0.5],[1,0.5]];portConstraint=eastwest;comic=0;sketch=0;fontColor=#878787;" parent="162" vertex="1">
                    <mxGeometry y="26" width="360" height="26" as="geometry"/>
                </mxCell>
                <mxCell id="164" value="- ser: Serial" style="text;strokeColor=none;fillColor=#162126;align=left;verticalAlign=top;spacingLeft=4;spacingRight=4;overflow=hidden;rotatable=0;points=[[0,0.5],[1,0.5]];portConstraint=eastwest;comic=0;sketch=0;fontColor=#878787;" parent="162" vertex="1">
                    <mxGeometry y="52" width="360" height="26" as="geometry"/>
                </mxCell>
                <mxCell id="177" value="" style="endArrow=classic;html=1;dashed=1;strokeColor=#1E628F;fontSize=12;fontColor=#d67d24;entryX=0;entryY=0.25;entryDx=0;entryDy=0;flowAnimation=1;strokeWidth=3;" parent="1" target="135" edge="1">
                    <mxGeometry relative="1" as="geometry">
                        <mxPoint x="960" y="680" as="sourcePoint"/>
                        <mxPoint x="920" y="660" as="targetPoint"/>
                        <Array as="points">
                            <mxPoint x="990" y="680"/>
                            <mxPoint x="990" y="400"/>
                        </Array>
                    </mxGeometry>
                </mxCell>
                <mxCell id="179" value="" style="endArrow=classic;html=1;dashed=1;strokeColor=#05f034;fontSize=12;fontColor=#d67d24;" parent="1" edge="1">
                    <mxGeometry relative="1" as="geometry">
                        <mxPoint x="840" y="680" as="sourcePoint"/>
                        <mxPoint x="940" y="680" as="targetPoint"/>
                    </mxGeometry>
                </mxCell>
                <mxCell id="180" value="&lt;div style=&quot;color: rgb(204, 204, 204); background-color: rgb(31, 31, 31); font-family: Consolas, &amp;quot;Courier New&amp;quot;, monospace; font-size: 14px; line-height: 19px;&quot;&gt;&lt;span style=&quot;color: #dcdcaa;&quot;&gt;criar_dispositivo()&lt;/span&gt;&lt;/div&gt;" style="edgeLabel;resizable=0;html=1;align=center;verticalAlign=middle;dashed=1;dashPattern=1 1;labelBackgroundColor=#162126;labelBorderColor=default;comic=0;sketch=0;strokeColor=#1E628F;fontSize=12;fontColor=#d67d24;fillColor=#162126;gradientColor=none;" parent="179" connectable="0" vertex="1">
                    <mxGeometry relative="1" as="geometry"/>
                </mxCell>
                <mxCell id="181" value="" style="endArrow=classic;html=1;dashed=1;strokeColor=#1E628F;fontSize=12;fontColor=#d67d24;flowAnimation=1;strokeWidth=3;" parent="1" edge="1">
                    <mxGeometry relative="1" as="geometry">
                        <mxPoint x="969" y="680" as="sourcePoint"/>
                        <mxPoint x="1060" y="551" as="targetPoint"/>
                        <Array as="points">
                            <mxPoint x="999" y="680"/>
                            <mxPoint x="999" y="550"/>
                        </Array>
                    </mxGeometry>
                </mxCell>
                <mxCell id="182" value="" style="endArrow=classic;html=1;dashed=1;strokeColor=#1E628F;fontSize=12;fontColor=#d67d24;flowAnimation=1;strokeWidth=3;" parent="1" edge="1">
                    <mxGeometry width="50" height="50" relative="1" as="geometry">
                        <mxPoint x="750" y="680" as="sourcePoint"/>
                        <mxPoint x="816" y="680" as="targetPoint"/>
                    </mxGeometry>
                </mxCell>
                <mxCell id="183" value="" style="endArrow=classic;html=1;dashed=1;strokeColor=#1E628F;fontSize=12;fontColor=#d67d24;entryX=1;entryY=0.25;entryDx=0;entryDy=0;exitX=0.5;exitY=1;exitDx=0;exitDy=0;fillColor=#0050ef;flowAnimation=1;strokeWidth=3;" parent="1" source="122" target="135" edge="1">
                    <mxGeometry width="50" height="50" relative="1" as="geometry">
                        <mxPoint x="1570" y="490" as="sourcePoint"/>
                        <mxPoint x="1620" y="440" as="targetPoint"/>
                        <Array as="points">
                            <mxPoint x="1520" y="400"/>
                        </Array>
                    </mxGeometry>
                </mxCell>
                <mxCell id="184" value="" style="endArrow=classic;html=1;dashed=1;strokeColor=#1E628F;fontSize=12;fontColor=#d67d24;entryX=0.5;entryY=0;entryDx=0;entryDy=0;exitX=0.5;exitY=1;exitDx=0;exitDy=0;fillColor=#0050ef;flowAnimation=1;strokeWidth=3;" parent="1" source="122" target="193" edge="1">
                    <mxGeometry width="50" height="50" relative="1" as="geometry">
                        <mxPoint x="1600" y="370" as="sourcePoint"/>
                        <mxPoint x="1290" y="409.4999999999998" as="targetPoint"/>
                        <Array as="points">
                            <mxPoint x="1521" y="400"/>
                            <mxPoint x="1800" y="400"/>
                        </Array>
                    </mxGeometry>
                </mxCell>
                <mxCell id="185" value="GenericSubscriber (Observer)" style="swimlane;fontStyle=0;childLayout=stackLayout;horizontal=1;startSize=26;fillColor=#162126;horizontalStack=0;resizeParent=1;resizeParentMax=0;resizeLast=0;collapsible=1;marginBottom=0;comic=0;sketch=0;strokeColor=#1E628F;fontColor=#878787;" parent="1" vertex="1">
                    <mxGeometry x="1060.1" y="972" width="220" height="52" as="geometry">
                        <mxRectangle x="1870.1" y="890" width="160" height="30" as="alternateBounds"/>
                    </mxGeometry>
                </mxCell>
                <mxCell id="186" value="+ update(device): void" style="text;strokeColor=none;fillColor=#162126;align=left;verticalAlign=top;spacingLeft=4;spacingRight=4;overflow=hidden;rotatable=0;points=[[0,0.5],[1,0.5]];portConstraint=eastwest;comic=0;sketch=0;fontColor=#878787;" parent="185" vertex="1">
                    <mxGeometry y="26" width="220" height="26" as="geometry"/>
                </mxCell>
                <mxCell id="188" value="&lt;b&gt;OBSERVER (SUBSCRIBER)&lt;/b&gt;" style="text;html=1;strokeColor=none;fillColor=none;align=left;verticalAlign=middle;whiteSpace=wrap;rounded=0;dashed=1;comic=0;sketch=0;fontColor=#1E628F;" parent="1" vertex="1">
                    <mxGeometry x="1060" y="942" width="172" height="30" as="geometry"/>
                </mxCell>
                <mxCell id="189" value="+ main(): void" style="text;strokeColor=none;fillColor=#162126;align=left;verticalAlign=top;spacingLeft=4;spacingRight=4;overflow=hidden;rotatable=0;points=[[0,0.5],[1,0.5]];portConstraint=eastwest;comic=0;sketch=0;fontColor=#878787;" parent="1" vertex="1">
                    <mxGeometry x="390" y="719.02" width="360" height="26" as="geometry"/>
                </mxCell>
                <mxCell id="192" value="" style="rounded=0;whiteSpace=wrap;html=1;labelBorderColor=#1e628f;comic=0;sketch=0;strokeColor=#1E628F;fontSize=10;fontColor=#877a5e;fillColor=#162126;gradientColor=none;labelBackgroundColor=#162126;" parent="1" vertex="1">
                    <mxGeometry x="1621" y="690" width="360" height="160" as="geometry"/>
                </mxCell>
                <mxCell id="193" value="AIDeviceSubscriber(Device)" style="swimlane;fontStyle=0;childLayout=stackLayout;horizontal=1;startSize=26;fillColor=#162126;horizontalStack=0;resizeParent=1;resizeParentMax=0;resizeLast=0;collapsible=1;marginBottom=0;comic=0;sketch=0;strokeColor=#1E628F;fontColor=#878787;" parent="1" vertex="1">
                    <mxGeometry x="1621" y="530" width="360" height="160" as="geometry"/>
                </mxCell>
                <mxCell id="194" value="- range_min: float" style="text;strokeColor=none;fillColor=#162126;align=left;verticalAlign=top;spacingLeft=4;spacingRight=4;overflow=hidden;rotatable=0;points=[[0,0.5],[1,0.5]];portConstraint=eastwest;comic=0;sketch=0;fontColor=#878787;" parent="193" vertex="1">
                    <mxGeometry y="26" width="360" height="26" as="geometry"/>
                </mxCell>
                <mxCell id="195" value="- range_max: float" style="text;strokeColor=none;fillColor=#162126;align=left;verticalAlign=top;spacingLeft=4;spacingRight=4;overflow=hidden;rotatable=0;points=[[0,0.5],[1,0.5]];portConstraint=eastwest;comic=0;sketch=0;fontColor=#878787;" parent="193" vertex="1">
                    <mxGeometry y="52" width="360" height="26" as="geometry"/>
                </mxCell>
                <mxCell id="196" value="- unit: string" style="text;strokeColor=none;fillColor=#162126;align=left;verticalAlign=top;spacingLeft=4;spacingRight=4;overflow=hidden;rotatable=0;points=[[0,0.5],[1,0.5]];portConstraint=eastwest;comic=0;sketch=0;fontColor=#878787;" parent="193" vertex="1">
                    <mxGeometry y="78" width="360" height="82" as="geometry"/>
                </mxCell>
                <mxCell id="197" value="- value: float" style="text;strokeColor=none;fillColor=none;align=left;verticalAlign=top;spacingLeft=4;spacingRight=4;overflow=hidden;rotatable=0;points=[[0,0.5],[1,0.5]];portConstraint=eastwest;comic=0;sketch=0;fontColor=#878787;" parent="1" vertex="1">
                    <mxGeometry x="1621" y="634" width="140" height="26" as="geometry"/>
                </mxCell>
                <mxCell id="198" value="- observers: List []" style="text;strokeColor=none;fillColor=none;align=left;verticalAlign=top;spacingLeft=4;spacingRight=4;overflow=hidden;rotatable=0;points=[[0,0.5],[1,0.5]];portConstraint=eastwest;comic=0;sketch=0;fontColor=#878787;" parent="1" vertex="1">
                    <mxGeometry x="1621" y="660" width="140" height="26" as="geometry"/>
                </mxCell>
                <mxCell id="199" value="+ __init__(tag, area, descricao, range_min, range_max, unit): void" style="text;strokeColor=none;fillColor=none;align=left;verticalAlign=top;spacingLeft=4;spacingRight=4;overflow=hidden;rotatable=0;points=[[0,0.5],[1,0.5]];portConstraint=eastwest;comic=0;sketch=0;fontColor=#878787;" parent="1" vertex="1">
                    <mxGeometry x="1622" y="690" width="360" height="26" as="geometry"/>
                </mxCell>
                <mxCell id="200" value="+ attach(observer): void" style="text;strokeColor=none;fillColor=none;align=left;verticalAlign=top;spacingLeft=4;spacingRight=4;overflow=hidden;rotatable=0;points=[[0,0.5],[1,0.5]];portConstraint=eastwest;comic=0;sketch=0;fontColor=#878787;" parent="1" vertex="1">
                    <mxGeometry x="1621" y="716" width="360" height="26" as="geometry"/>
                </mxCell>
                <mxCell id="201" value="+ detach(observer): void" style="text;strokeColor=none;fillColor=none;align=left;verticalAlign=top;spacingLeft=4;spacingRight=4;overflow=hidden;rotatable=0;points=[[0,0.5],[1,0.5]];portConstraint=eastwest;comic=0;sketch=0;fontColor=#878787;" parent="1" vertex="1">
                    <mxGeometry x="1622" y="742" width="360" height="26" as="geometry"/>
                </mxCell>
                <mxCell id="202" value="+ notify(): void" style="text;strokeColor=none;fillColor=none;align=left;verticalAlign=top;spacingLeft=4;spacingRight=4;overflow=hidden;rotatable=0;points=[[0,0.5],[1,0.5]];portConstraint=eastwest;comic=0;sketch=0;fontColor=#878787;" parent="1" vertex="1">
                    <mxGeometry x="1622" y="768" width="360" height="26" as="geometry"/>
                </mxCell>
                <mxCell id="203" value="+ update_value(new_value: float): void" style="text;strokeColor=none;fillColor=none;align=left;verticalAlign=top;spacingLeft=4;spacingRight=4;overflow=hidden;rotatable=0;points=[[0,0.5],[1,0.5]];portConstraint=eastwest;comic=0;sketch=0;fontColor=#878787;" parent="1" vertex="1">
                    <mxGeometry x="1622" y="794" width="360" height="26" as="geometry"/>
                </mxCell>
                <mxCell id="204" value="+ __repr__(): String" style="text;strokeColor=none;fillColor=none;align=left;verticalAlign=top;spacingLeft=4;spacingRight=4;overflow=hidden;rotatable=0;points=[[0,0.5],[1,0.5]];portConstraint=eastwest;comic=0;sketch=0;fontColor=#878787;" parent="1" vertex="1">
                    <mxGeometry x="1622" y="820" width="360" height="26" as="geometry"/>
                </mxCell>
                <mxCell id="208" value="- _unit: String" style="text;strokeColor=none;fillColor=#162126;align=left;verticalAlign=top;spacingLeft=4;spacingRight=4;overflow=hidden;rotatable=0;points=[[0,0.5],[1,0.5]];portConstraint=eastwest;comic=0;sketch=0;fontColor=#878787;" parent="1" vertex="1">
                    <mxGeometry x="1060.9" y="691.02" width="360" height="26" as="geometry"/>
                </mxCell>
                <mxCell id="213" value="+ build(): AIDevice" style="text;strokeColor=none;fillColor=none;align=left;verticalAlign=top;spacingLeft=4;spacingRight=4;overflow=hidden;rotatable=0;points=[[0,0.5],[1,0.5]];portConstraint=eastwest;comic=0;sketch=0;fontColor=#878787;" parent="1" vertex="1">
                    <mxGeometry x="1061.9" y="873.02" width="360" height="26" as="geometry"/>
                </mxCell>
                <mxCell id="214" value="" style="endArrow=classic;html=1;dashed=1;strokeColor=#1E628F;fontSize=12;fontColor=#d67d24;flowAnimation=1;exitX=1;exitY=0.5;exitDx=0;exitDy=0;entryX=-0.003;entryY=0.103;entryDx=0;entryDy=0;entryPerimeter=0;strokeWidth=3;" parent="1" source="213" target="193" edge="1">
                    <mxGeometry relative="1" as="geometry">
                        <mxPoint x="1500" y="650" as="sourcePoint"/>
                        <mxPoint x="1591" y="521" as="targetPoint"/>
                        <Array as="points">
                            <mxPoint x="1510" y="886"/>
                            <mxPoint x="1510" y="546"/>
                        </Array>
                    </mxGeometry>
                </mxCell>
                <mxCell id="218" value="" style="sketch=0;pointerEvents=1;shadow=0;dashed=0;html=1;strokeColor=none;fillColor=#505050;labelPosition=center;verticalLabelPosition=bottom;verticalAlign=top;outlineConnect=0;align=center;shape=mxgraph.office.users.csv_file;" parent="1" vertex="1">
                    <mxGeometry x="400.65999999999997" y="145.01999999999998" width="39.34" height="24.98" as="geometry"/>
                </mxCell>
                <mxCell id="231" value="A1-VA11" style="text;strokeColor=#79A36E;fillColor=none;align=center;verticalAlign=top;spacingLeft=4;spacingRight=4;overflow=hidden;rotatable=0;points=[[0,0.5],[1,0.5]];portConstraint=eastwest;comic=0;sketch=0;fontColor=#878787;whiteSpace=wrap;fontSize=9;" parent="1" vertex="1">
                    <mxGeometry x="398.26" y="206" width="63.14" height="26" as="geometry"/>
                </mxCell>
                <mxCell id="237" value="DO" style="text;strokeColor=#79A36E;fillColor=none;align=center;verticalAlign=top;spacingLeft=4;spacingRight=4;overflow=hidden;rotatable=0;points=[[0,0.5],[1,0.5]];portConstraint=eastwest;comic=0;sketch=0;fontColor=#878787;whiteSpace=wrap;fontSize=9;" parent="1" vertex="1">
                    <mxGeometry x="461.06" y="206" width="53.14" height="26" as="geometry"/>
                </mxCell>
                <mxCell id="238" value="1" style="text;strokeColor=#79A36E;fillColor=none;align=center;verticalAlign=top;spacingLeft=4;spacingRight=4;overflow=hidden;rotatable=0;points=[[0,0.5],[1,0.5]];portConstraint=eastwest;comic=0;sketch=0;fontColor=#878787;whiteSpace=wrap;fontSize=9;" parent="1" vertex="1">
                    <mxGeometry x="514.54" y="206" width="53.14" height="26" as="geometry"/>
                </mxCell>
                <mxCell id="241" value="A1-VA11" style="text;strokeColor=#79A36E;fillColor=none;align=center;verticalAlign=top;spacingLeft=4;spacingRight=4;overflow=hidden;rotatable=0;points=[[0,0.5],[1,0.5]];portConstraint=eastwest;comic=0;sketch=0;fontColor=#878787;whiteSpace=wrap;fontSize=9;" parent="1" vertex="1">
                    <mxGeometry x="398.26" y="232" width="63.14" height="26" as="geometry"/>
                </mxCell>
                <mxCell id="242" value="DO" style="text;strokeColor=#79A36E;fillColor=none;align=center;verticalAlign=top;spacingLeft=4;spacingRight=4;overflow=hidden;rotatable=0;points=[[0,0.5],[1,0.5]];portConstraint=eastwest;comic=0;sketch=0;fontColor=#878787;whiteSpace=wrap;fontSize=9;" parent="1" vertex="1">
                    <mxGeometry x="461.06" y="232" width="53.14" height="26" as="geometry"/>
                </mxCell>
                <mxCell id="243" value="A1-AI-TIT01" style="text;strokeColor=#79A36E;fillColor=none;align=center;verticalAlign=top;spacingLeft=4;spacingRight=4;overflow=hidden;rotatable=0;points=[[0,0.5],[1,0.5]];portConstraint=eastwest;comic=0;sketch=0;fontColor=#878787;whiteSpace=wrap;fontSize=9;" parent="1" vertex="1">
                    <mxGeometry x="398.26" y="258" width="63.14" height="26" as="geometry"/>
                </mxCell>
                <mxCell id="244" value="AI" style="text;strokeColor=#79A36E;fillColor=none;align=center;verticalAlign=top;spacingLeft=4;spacingRight=4;overflow=hidden;rotatable=0;points=[[0,0.5],[1,0.5]];portConstraint=eastwest;comic=0;sketch=0;fontColor=#878787;whiteSpace=wrap;fontSize=9;" parent="1" vertex="1">
                    <mxGeometry x="461.4" y="258" width="53.14" height="26" as="geometry"/>
                </mxCell>
                <mxCell id="245" value="A1-AI-LIT01" style="text;strokeColor=#79A36E;fillColor=none;align=center;verticalAlign=top;spacingLeft=4;spacingRight=4;overflow=hidden;rotatable=0;points=[[0,0.5],[1,0.5]];portConstraint=eastwest;comic=0;sketch=0;fontColor=#878787;whiteSpace=wrap;fontSize=9;" parent="1" vertex="1">
                    <mxGeometry x="398.26" y="284" width="63.14" height="26" as="geometry"/>
                </mxCell>
                <mxCell id="246" value="AI" style="text;strokeColor=#79A36E;fillColor=none;align=center;verticalAlign=top;spacingLeft=4;spacingRight=4;overflow=hidden;rotatable=0;points=[[0,0.5],[1,0.5]];portConstraint=eastwest;comic=0;sketch=0;fontColor=#878787;whiteSpace=wrap;fontSize=9;" parent="1" vertex="1">
                    <mxGeometry x="461.4" y="284" width="53.14" height="26" as="geometry"/>
                </mxCell>
                <mxCell id="247" value="TIT01 - Temperatura Tanque 01" style="text;strokeColor=#79A36E;fillColor=none;align=center;verticalAlign=top;spacingLeft=4;spacingRight=4;overflow=hidden;rotatable=0;points=[[0,0.5],[1,0.5]];portConstraint=eastwest;comic=0;sketch=0;fontColor=#878787;whiteSpace=wrap;fontSize=9;" parent="1" vertex="1">
                    <mxGeometry x="567.3399999999999" y="258" width="156.86" height="26" as="geometry"/>
                </mxCell>
                <mxCell id="248" value="LIT01 - Sensor de Nivel tanque 01" style="text;strokeColor=#79A36E;fillColor=none;align=center;verticalAlign=top;spacingLeft=4;spacingRight=4;overflow=hidden;rotatable=0;points=[[0,0.5],[1,0.5]];portConstraint=eastwest;comic=0;sketch=0;fontColor=#878787;whiteSpace=wrap;fontSize=9;" parent="1" vertex="1">
                    <mxGeometry x="567.68" y="284" width="156.86" height="26" as="geometry"/>
                </mxCell>
                <mxCell id="249" value="1" style="text;strokeColor=#79A36E;fillColor=none;align=center;verticalAlign=top;spacingLeft=4;spacingRight=4;overflow=hidden;rotatable=0;points=[[0,0.5],[1,0.5]];portConstraint=eastwest;comic=0;sketch=0;fontColor=#878787;whiteSpace=wrap;fontSize=9;" parent="1" vertex="1">
                    <mxGeometry x="514.2" y="258" width="53.14" height="26" as="geometry"/>
                </mxCell>
                <mxCell id="250" value="1" style="text;strokeColor=#79A36E;fillColor=none;align=center;verticalAlign=top;spacingLeft=4;spacingRight=4;overflow=hidden;rotatable=0;points=[[0,0.5],[1,0.5]];portConstraint=eastwest;comic=0;sketch=0;fontColor=#878787;whiteSpace=wrap;fontSize=9;" parent="1" vertex="1">
                    <mxGeometry x="514.54" y="284" width="53.14" height="26" as="geometry"/>
                </mxCell>
                <mxCell id="251" value="1" style="text;strokeColor=#79A36E;fillColor=none;align=center;verticalAlign=top;spacingLeft=4;spacingRight=4;overflow=hidden;rotatable=0;points=[[0,0.5],[1,0.5]];portConstraint=eastwest;comic=0;sketch=0;fontColor=#878787;whiteSpace=wrap;fontSize=9;" parent="1" vertex="1">
                    <mxGeometry x="514.54" y="232" width="53.14" height="26" as="geometry"/>
                </mxCell>
                <mxCell id="252" value="Válvula 12" style="text;strokeColor=#79A36E;fillColor=none;align=center;verticalAlign=top;spacingLeft=4;spacingRight=4;overflow=hidden;rotatable=0;points=[[0,0.5],[1,0.5]];portConstraint=eastwest;comic=0;sketch=0;fontColor=#878787;whiteSpace=wrap;fontSize=9;" parent="1" vertex="1">
                    <mxGeometry x="567.68" y="232" width="156.86" height="26" as="geometry"/>
                </mxCell>
                <mxCell id="253" value="Válvula 11" style="text;strokeColor=#79A36E;fillColor=none;align=center;verticalAlign=top;spacingLeft=4;spacingRight=4;overflow=hidden;rotatable=0;points=[[0,0.5],[1,0.5]];portConstraint=eastwest;comic=0;sketch=0;fontColor=#878787;whiteSpace=wrap;fontSize=9;" parent="1" vertex="1">
                    <mxGeometry x="567.68" y="206" width="156.86" height="26" as="geometry"/>
                </mxCell>
                <mxCell id="254" value="Range Min" style="text;strokeColor=#79A36E;fillColor=none;align=center;verticalAlign=top;spacingLeft=4;spacingRight=4;overflow=hidden;rotatable=0;points=[[0,0.5],[1,0.5]];portConstraint=eastwest;comic=0;sketch=0;fontColor=#878787;whiteSpace=wrap;fontSize=9;" parent="1" vertex="1">
                    <mxGeometry x="724.2" y="180" width="57.2" height="26" as="geometry"/>
                </mxCell>
                <mxCell id="255" value="-" style="text;strokeColor=#79A36E;fillColor=none;align=center;verticalAlign=top;spacingLeft=4;spacingRight=4;overflow=hidden;rotatable=0;points=[[0,0.5],[1,0.5]];portConstraint=eastwest;comic=0;sketch=0;fontColor=#878787;whiteSpace=wrap;fontSize=9;" parent="1" vertex="1">
                    <mxGeometry x="724.54" y="206" width="57.2" height="26" as="geometry"/>
                </mxCell>
                <mxCell id="256" value="-" style="text;strokeColor=#79A36E;fillColor=none;align=center;verticalAlign=top;spacingLeft=4;spacingRight=4;overflow=hidden;rotatable=0;points=[[0,0.5],[1,0.5]];portConstraint=eastwest;comic=0;sketch=0;fontColor=#878787;whiteSpace=wrap;fontSize=9;" parent="1" vertex="1">
                    <mxGeometry x="724.54" y="232" width="57.2" height="26" as="geometry"/>
                </mxCell>
                <mxCell id="257" value="0" style="text;strokeColor=#79A36E;fillColor=none;align=center;verticalAlign=top;spacingLeft=4;spacingRight=4;overflow=hidden;rotatable=0;points=[[0,0.5],[1,0.5]];portConstraint=eastwest;comic=0;sketch=0;fontColor=#878787;whiteSpace=wrap;fontSize=9;" parent="1" vertex="1">
                    <mxGeometry x="724.2" y="258" width="57.2" height="26" as="geometry"/>
                </mxCell>
                <mxCell id="258" value="0" style="text;strokeColor=#79A36E;fillColor=none;align=center;verticalAlign=top;spacingLeft=4;spacingRight=4;overflow=hidden;rotatable=0;points=[[0,0.5],[1,0.5]];portConstraint=eastwest;comic=0;sketch=0;fontColor=#878787;whiteSpace=wrap;fontSize=9;" parent="1" vertex="1">
                    <mxGeometry x="724.2" y="284" width="57.2" height="26" as="geometry"/>
                </mxCell>
                <mxCell id="259" value="Descrição" style="text;strokeColor=#79A36E;fillColor=none;align=center;verticalAlign=top;spacingLeft=4;spacingRight=4;overflow=hidden;rotatable=0;points=[[0,0.5],[1,0.5]];portConstraint=eastwest;comic=0;sketch=0;fontColor=#007333;whiteSpace=wrap;fontSize=9;" parent="1" vertex="1">
                    <mxGeometry x="567.3399999999999" y="180" width="156.86" height="26" as="geometry"/>
                </mxCell>
                <mxCell id="260" value="Area" style="text;strokeColor=#79A36E;fillColor=none;align=center;verticalAlign=top;spacingLeft=4;spacingRight=4;overflow=hidden;rotatable=0;points=[[0,0.5],[1,0.5]];portConstraint=eastwest;comic=0;sketch=0;fontColor=#007333;whiteSpace=wrap;fontSize=9;" parent="1" vertex="1">
                    <mxGeometry x="514.54" y="180" width="53.14" height="26" as="geometry"/>
                </mxCell>
                <mxCell id="261" value="Tag table" style="text;strokeColor=#79A36E;fillColor=none;align=center;verticalAlign=top;spacingLeft=4;spacingRight=4;overflow=hidden;rotatable=0;points=[[0,0.5],[1,0.5]];portConstraint=eastwest;comic=0;sketch=0;fontColor=#007333;whiteSpace=wrap;fontSize=9;" parent="1" vertex="1">
                    <mxGeometry x="461.06" y="180" width="53.14" height="26" as="geometry"/>
                </mxCell>
                <mxCell id="262" value="TAG" style="text;strokeColor=#79A36E;fillColor=none;align=center;verticalAlign=top;spacingLeft=4;spacingRight=4;overflow=hidden;rotatable=0;points=[[0,0.5],[1,0.5]];portConstraint=eastwest;comic=0;sketch=0;fontColor=#007333;whiteSpace=wrap;fontSize=9;" parent="1" vertex="1">
                    <mxGeometry x="398.26" y="180" width="63.14" height="26" as="geometry"/>
                </mxCell>
                <mxCell id="263" value="Range Max" style="text;strokeColor=#79A36E;fillColor=none;align=center;verticalAlign=top;spacingLeft=4;spacingRight=4;overflow=hidden;rotatable=0;points=[[0,0.5],[1,0.5]];portConstraint=eastwest;comic=0;sketch=0;fontColor=#878787;whiteSpace=wrap;fontSize=9;" parent="1" vertex="1">
                    <mxGeometry x="781.74" y="180" width="57.2" height="26" as="geometry"/>
                </mxCell>
                <mxCell id="264" value="-" style="text;strokeColor=#79A36E;fillColor=none;align=center;verticalAlign=top;spacingLeft=4;spacingRight=4;overflow=hidden;rotatable=0;points=[[0,0.5],[1,0.5]];portConstraint=eastwest;comic=0;sketch=0;fontColor=#878787;whiteSpace=wrap;fontSize=9;" parent="1" vertex="1">
                    <mxGeometry x="782.0799999999999" y="206" width="57.2" height="26" as="geometry"/>
                </mxCell>
                <mxCell id="265" value="-" style="text;strokeColor=#79A36E;fillColor=none;align=center;verticalAlign=top;spacingLeft=4;spacingRight=4;overflow=hidden;rotatable=0;points=[[0,0.5],[1,0.5]];portConstraint=eastwest;comic=0;sketch=0;fontColor=#878787;whiteSpace=wrap;fontSize=9;" parent="1" vertex="1">
                    <mxGeometry x="782.0799999999999" y="232" width="57.2" height="26" as="geometry"/>
                </mxCell>
                <mxCell id="266" value="900" style="text;strokeColor=#79A36E;fillColor=none;align=center;verticalAlign=top;spacingLeft=4;spacingRight=4;overflow=hidden;rotatable=0;points=[[0,0.5],[1,0.5]];portConstraint=eastwest;comic=0;sketch=0;fontColor=#878787;whiteSpace=wrap;fontSize=9;" parent="1" vertex="1">
                    <mxGeometry x="781.74" y="258" width="57.2" height="26" as="geometry"/>
                </mxCell>
                <mxCell id="267" value="25" style="text;strokeColor=#79A36E;fillColor=none;align=center;verticalAlign=top;spacingLeft=4;spacingRight=4;overflow=hidden;rotatable=0;points=[[0,0.5],[1,0.5]];portConstraint=eastwest;comic=0;sketch=0;fontColor=#878787;whiteSpace=wrap;fontSize=9;" parent="1" vertex="1">
                    <mxGeometry x="781.74" y="284" width="57.2" height="26" as="geometry"/>
                </mxCell>
                <mxCell id="268" value="Unit" style="text;strokeColor=#79A36E;fillColor=none;align=center;verticalAlign=top;spacingLeft=4;spacingRight=4;overflow=hidden;rotatable=0;points=[[0,0.5],[1,0.5]];portConstraint=eastwest;comic=0;sketch=0;fontColor=#878787;whiteSpace=wrap;fontSize=9;" parent="1" vertex="1">
                    <mxGeometry x="838.9399999999999" y="180" width="32.46" height="26" as="geometry"/>
                </mxCell>
                <mxCell id="273" value="-" style="text;strokeColor=#79A36E;fillColor=none;align=center;verticalAlign=top;spacingLeft=4;spacingRight=4;overflow=hidden;rotatable=0;points=[[0,0.5],[1,0.5]];portConstraint=eastwest;comic=0;sketch=0;fontColor=#878787;whiteSpace=wrap;fontSize=9;" parent="1" vertex="1">
                    <mxGeometry x="839.28" y="206" width="32.46" height="26" as="geometry"/>
                </mxCell>
                <mxCell id="274" value="-" style="text;strokeColor=#79A36E;fillColor=none;align=center;verticalAlign=top;spacingLeft=4;spacingRight=4;overflow=hidden;rotatable=0;points=[[0,0.5],[1,0.5]];portConstraint=eastwest;comic=0;sketch=0;fontColor=#878787;whiteSpace=wrap;fontSize=9;" parent="1" vertex="1">
                    <mxGeometry x="839.28" y="232" width="32.46" height="26" as="geometry"/>
                </mxCell>
                <mxCell id="275" value="°C" style="text;strokeColor=#79A36E;fillColor=none;align=center;verticalAlign=top;spacingLeft=4;spacingRight=4;overflow=hidden;rotatable=0;points=[[0,0.5],[1,0.5]];portConstraint=eastwest;comic=0;sketch=0;fontColor=#878787;whiteSpace=wrap;fontSize=9;" parent="1" vertex="1">
                    <mxGeometry x="838.9399999999999" y="258" width="32.46" height="26" as="geometry"/>
                </mxCell>
                <mxCell id="276" value="m" style="text;strokeColor=#79A36E;fillColor=none;align=center;verticalAlign=top;spacingLeft=4;spacingRight=4;overflow=hidden;rotatable=0;points=[[0,0.5],[1,0.5]];portConstraint=eastwest;comic=0;sketch=0;fontColor=#878787;whiteSpace=wrap;fontSize=9;" parent="1" vertex="1">
                    <mxGeometry x="839.28" y="284" width="32.46" height="26" as="geometry"/>
                </mxCell>
                <mxCell id="12" value="&lt;b&gt;IO Object list&lt;/b&gt;" style="text;html=1;strokeColor=none;fillColor=none;align=center;verticalAlign=middle;whiteSpace=wrap;rounded=0;dashed=1;comic=0;sketch=0;fontColor=#79A36E;" parent="1" vertex="1">
                    <mxGeometry x="450" y="141.01999999999998" width="78" height="30" as="geometry"/>
                </mxCell>
                <mxCell id="279" value="" style="endArrow=classic;html=1;dashed=1;strokeColor=#1E628F;fontSize=12;fontColor=#d67d24;flowAnimation=1;exitX=0.5;exitY=1;exitDx=0;exitDy=0;strokeWidth=3;" parent="1" source="147" edge="1">
                    <mxGeometry relative="1" as="geometry">
                        <mxPoint x="663" y="626.5" as="sourcePoint"/>
                        <mxPoint x="635" y="638" as="targetPoint"/>
                        <Array as="points"/>
                    </mxGeometry>
                </mxCell>
            </root>
        </mxGraphModel>
    </diagram>
</mxfile>